<?xml version="1.0" encoding="utf-8"?>
<!-- Generator: Adobe Illustrator 25.4.1, SVG Export Plug-In . SVG Version: 6.00 Build 0)  -->
<svg version="1.1" id="レイヤー_1" xmlns="http://www.w3.org/2000/svg" xmlns:xlink="http://www.w3.org/1999/xlink" x="0px"
	 y="0px" viewBox="0 0 176.7 200.8" style="enable-background:new 0 0 176.7 200.8;" xml:space="preserve">
<style type="text/css">
	.st0{fill:#2C2D2D;}
	.st1{font-family:'SofiaProSoftBold';}
	.st2{font-size:30.49px;}
	.st3{font-family:'BodoniSvtyTwoITCTT-Book';}
	.st4{font-size:13.38px;}
</style>
<g id="レイヤー_2_00000086670207769210541560000005441570772152891312_">
	<g id="レイヤー_1-2">
		<text transform="matrix(1 0 0 1 -0.1 181.06)" class="st0 st1 st2">S</text>
		<text transform="matrix(1 0 0 1 17.21 181.06)" class="st0 st1 st2">a</text>
		<text transform="matrix(1 0 0 1 35.35 181.06)" class="st0 st1 st2">m</text>
		<text transform="matrix(1 0 0 1 61.04 181.06)" class="st0 st1 st2">e</text>
		<text transform="matrix(1 0 0 1 77.57 181.06)" class="st0 st1 st2"> </text>
		<text transform="matrix(1 0 0 1 84.85 181.06)" class="st0 st1 st2">C</text>
		<text transform="matrix(1 0 0 1 105.21 181.06)" class="st0 st1 st2">o</text>
		<text transform="matrix(1 0 0 1 122.28 181.06)" class="st0 st1 st2">ff</text>
		<text transform="matrix(1 0 0 1 143.72 181.06)" class="st0 st1 st2">e</text>
		<text transform="matrix(1 0 0 1 160.18 181.06)" class="st0 st1 st2">e</text>
		<path class="st0" d="M20.1,136.3c0,9.4,9.6,17,21.4,17h90.8c11.8,0,21.4-7.6,21.4-17v-0.2H20.1V136.3z"/>
		<path class="st0" d="M111.9,47.6c-2-14.4-7.3-28.8-9.8-38.7C100.8,4,97.8,0,94.7,0c-4.3,0-7.3,8.5-7.5,9.1
			c-2.2,6.2-4.4,12.4-6.7,18.7c-1.4-5.7-2.8-11.4-4.2-17.1c-0.2-1.1-1.2-1.8-2.3-1.6c-0.3,0.1-0.6,0.2-0.8,0.3l-0.9,1
			c-4,10-6.5,20.6-7.3,31.4c-0.2,2-0.2,4-0.3,5.9L111.9,47.6z M95.8,18.6c1.9,0.4,3.1,2.2,2.7,4.1c-0.4,1.9-2.2,3.1-4.1,2.7
			c-1.4-0.3-2.5-1.4-2.7-2.7c-0.4-1.9,0.8-3.7,2.6-4.1C94.8,18.5,95.3,18.5,95.8,18.6L95.8,18.6z"/>
		<path class="st0" d="M166,62.2c-4.9-4.9-11.4-7.6-18.3-7.6h-5.2v-4H31.3v36.9c0,17.5,7.5,34.1,20.7,45.6h69.7
			c8.5-7.5,14.8-17.2,18.1-28c13.6,4.3,28.2-3.2,32.5-16.9C175.2,79.1,172.8,69,166,62.2L166,62.2z M156.1,89
			c-3.6,3.6-9.2,4.6-13.8,2.3c0.1-1.2,0.1-2.5,0.1-3.7v-19h5.2c6.6,0,12,5.4,12,12C159.6,83.7,158.4,86.8,156.1,89z"/>
		<text transform="matrix(1 0 0 1 57.73 197.21)" class="st0 st3 st4">S</text>
		<text transform="matrix(1 0 0 1 64.34 197.21)" class="st0 st3 st4">i</text>
		<text transform="matrix(1 0 0 1 67.68 197.21)" class="st0 st3 st4">n</text>
		<text transform="matrix(1 0 0 1 74.19 197.21)" class="st0 st3 st4">c</text>
		<text transform="matrix(1 0 0 1 79.62 197.21)" class="st0 st3 st4">e</text>
		<text transform="matrix(1 0 0 1 85.35 197.21)" class="st0 st3 st4"> </text>
		<text transform="matrix(1 0 0 1 87.73 197.21)" class="st0 st3 st4">1</text>
		<text transform="matrix(1 0 0 1 94.71 197.21)" class="st0 st3 st4">9</text>
		<text transform="matrix(1 0 0 1 101.74 197.21)" class="st0 st3 st4">3</text>
		<text transform="matrix(1 0 0 1 108.8 197.21)" class="st0 st3 st4">4</text>
		<ellipse class="st0" cx="48" cy="192.6" rx="6.3" ry="0.4"/>
		<ellipse class="st0" cx="125.7" cy="192.6" rx="6.3" ry="0.4"/>
	</g>
</g>
</svg>
