<svg xmlns="http://www.w3.org/2000/svg" viewBox="0 0 176.71 200.82"><defs><style>.cls-1{font-size:30.49px;font-family:SofiaProSoftBold, Sofia Pro Soft;letter-spacing:-0.01em;}.cls-1,.cls-11,.cls-12{fill:#fafafa;}.cls-2{letter-spacing:-0.01em;}.cls-3{letter-spacing:-0.01em;}.cls-4{letter-spacing:0em;}.cls-5{letter-spacing:0em;}.cls-6{letter-spacing:0em;}.cls-7{letter-spacing:0em;}.cls-8{letter-spacing:0em;}.cls-9{letter-spacing:0em;}.cls-10{letter-spacing:0em;}.cls-12{font-size:13.38px;font-family:BodoniSvtyTwoITCTT-Book, "Bodoni 72";letter-spacing:0em;}.cls-13{letter-spacing:0em;}.cls-14{letter-spacing:0em;}.cls-15{letter-spacing:0em;}.cls-16{letter-spacing:0em;}.cls-17{letter-spacing:-0.01em;}.cls-18{letter-spacing:-0.01em;}.cls-19{letter-spacing:-0.01em;}.cls-20{letter-spacing:-0.01em;}.cls-21{letter-spacing:0em;}</style></defs><g id="レイヤー_2" data-name="レイヤー 2"><g id="レイヤー_1-2" data-name="レイヤー 1"><text class="cls-1" transform="translate(-0.1 181.06)">S<tspan class="cls-2" x="17.31" y="0">a</tspan><tspan class="cls-3" x="35.45" y="0">m</tspan><tspan class="cls-4" x="61.14" y="0">e</tspan><tspan class="cls-5" x="77.67" y="0"> </tspan><tspan class="cls-6" x="84.95" y="0">C</tspan><tspan class="cls-7" x="105.31" y="0">o</tspan><tspan class="cls-8" x="122.38" y="0">ff</tspan><tspan class="cls-9" x="143.82" y="0">e</tspan><tspan class="cls-10" x="160.28" y="0">e</tspan></text><path class="cls-11" d="M20.08,136.33c0,9.4,9.59,17,21.41,17h90.79c11.83,0,21.42-7.61,21.42-17v-.22H20.08Z"/><path class="cls-11" d="M111.89,47.6c-2-14.36-7.27-28.77-9.82-38.67C100.79,4,97.78,0,94.74,0c-4.3,0-7.29,8.46-7.5,9.06q-3.33,9.33-6.67,18.67-2.1-8.53-4.19-17.06A2,2,0,0,0,73.25,9.4l-.86,1a104.33,104.33,0,0,0-7.31,31.35c-.15,2-.22,4-.26,5.88Zm-16.11-29a3.48,3.48,0,1,1-4.09,4.09A3.47,3.47,0,0,1,95.78,18.55Z"/><path class="cls-11" d="M166,62.19a25.87,25.87,0,0,0-18.32-7.59h-5.2v-4H31.31V87.52A60.48,60.48,0,0,0,52,133.16h69.69a60.67,60.67,0,0,0,18.09-28,25.91,25.91,0,0,0,26.16-43ZM156.15,89a12,12,0,0,1-13.81,2.27c.07-1.24.12-2.48.12-3.74v-19h5.2A12,12,0,0,1,156.15,89Z"/><text class="cls-12" transform="translate(57.73 197.21)">S<tspan class="cls-13" x="6.61" y="0">i</tspan><tspan class="cls-14" x="9.95" y="0">n</tspan><tspan class="cls-15" x="16.46" y="0">c</tspan><tspan class="cls-16" x="21.89" y="0">e</tspan><tspan class="cls-17" x="27.62" y="0"> </tspan><tspan class="cls-18" x="30" y="0">1</tspan><tspan class="cls-19" x="36.98" y="0">9</tspan><tspan class="cls-20" x="44.01" y="0">3</tspan><tspan class="cls-21" x="51.07" y="0">4</tspan></text><ellipse class="cls-11" cx="48.05" cy="192.6" rx="6.34" ry="0.44"/><ellipse class="cls-11" cx="125.73" cy="192.6" rx="6.34" ry="0.44"/></g></g></svg>