<svg xmlns="http://www.w3.org/2000/svg" viewBox="0 0 174.68 197.45"><defs><style>.cls-1{fill:#2c2d2d;}</style></defs><g id="レイヤー_2" data-name="レイヤー 2"><g id="レイヤー_1-2" data-name="レイヤー 1"><path class="cls-1" d="M1.29,174.32A2.2,2.2,0,0,1,4,175.39a3.55,3.55,0,0,0,3.38,2c1.8,0,3.05-.85,3.08-2.22,0-1-.4-1.77-2.53-2.38l-2.53-.7C.81,170.64,0,168,0,166.09c0-3.75,3.2-6.28,7.23-6.28,3,0,5.27,1.31,6.4,3.51a1.85,1.85,0,0,1-.67,2.47,2,2,0,0,1-2.8-.52,3.72,3.72,0,0,0-3-1.46c-1.56,0-2.72.91-2.72,2.16,0,.55.22,1.56,2.26,2.14l2.5.73c5.09,1.46,5.82,4.33,5.76,6.34-.06,4.18-3.84,6.16-7.56,6.16S1,179.54.1,176.82A2,2,0,0,1,1.29,174.32Z"/><path class="cls-1" d="M28.21,168.56a2.09,2.09,0,0,1,2.14-1.89,2,2,0,0,1,2.13,1.89v10.76a2,2,0,0,1-2.13,1.89,2.08,2.08,0,0,1-2.14-1.89v-.27a5.06,5.06,0,0,1-4.27,2.29c-3.62,0-6.92-2.69-6.92-7.41s3.3-7.38,6.92-7.38a5.27,5.27,0,0,1,4.27,2.29Zm-3.44,9a3.6,3.6,0,0,0,0-7.2,3.61,3.61,0,0,0,0,7.2Z"/><path class="cls-1" d="M58.23,179.32a2,2,0,0,1-2.13,1.89A2.07,2.07,0,0,1,54,179.32v-5.85c0-1.86-1.13-2.83-2.38-2.83s-2.41.82-2.41,2.89v5.79A2,2,0,0,1,47,181.21a2.08,2.08,0,0,1-2.13-1.89v-5.94a2.44,2.44,0,0,0-2.35-2.74c-1.28,0-2.47.73-2.47,2.89v5.79A2,2,0,0,1,38,181.21a2.07,2.07,0,0,1-2.13-1.89V168.56A2.08,2.08,0,0,1,38,166.67a2,2,0,0,1,2.13,1.89v.34a4.07,4.07,0,0,1,3.72-2.35c2.26,0,3.75.73,4.7,2.68a4.59,4.59,0,0,1,4.14-2.71c3.39,0,5.55,2.16,5.58,6.46Z"/><path class="cls-1" d="M73.16,180.06a9,9,0,0,1-4.91,1.28,7.23,7.23,0,0,1-7.44-7.44,7.37,7.37,0,1,1,14.73.12,1.32,1.32,0,0,1-1.31,1.31H65.05c.21,1.65,2,2.35,3.51,2.35A3.87,3.87,0,0,0,71,177a2,2,0,0,1,2.68.21A1.85,1.85,0,0,1,73.16,180.06Zm-1.89-7.38a2.77,2.77,0,0,0-3-2.59,3,3,0,0,0-3.17,2.59Z"/><path class="cls-1" d="M95.36,159.81a10.56,10.56,0,0,1,7.44,2.9,2.21,2.21,0,0,1-3.14,3.08,6.44,6.44,0,1,0,0,9.57,2.21,2.21,0,0,1,3.14,3.08,10.73,10.73,0,1,1-7.44-18.63Z"/><path class="cls-1" d="M105,173.9a7.49,7.49,0,0,1,15,0,7.49,7.49,0,0,1-15,0Zm10.7,0a3.22,3.22,0,1,0-6.43,0,3.22,3.22,0,1,0,6.43,0Z"/><path class="cls-1" d="M130.41,163c-1.47,0-2,1-2,2.72v1.12h6.49v-1c0-4.36,2.16-6.77,6.25-6.77h.37a2,2,0,0,1,2,1.95,2,2,0,0,1-2,1.95h-.37c-1.46,0-2,1-2,2.72v1.12h1.46a1.62,1.62,0,0,1,1.53,1.68,1.65,1.65,0,0,1-1.53,1.68h-1.46v9.14a2,2,0,0,1-2.14,1.89,2.08,2.08,0,0,1-2.13-1.89v-9.14h-6.49v9.14a2,2,0,0,1-2.14,1.89,2.07,2.07,0,0,1-2.13-1.89v-9.14h-1.34a1.64,1.64,0,0,1-1.53-1.68,1.61,1.61,0,0,1,1.53-1.68h1.34v-1c0-4.36,2.16-6.77,6.25-6.77h.33a2,2,0,0,1,1.95,1.95,2,2,0,0,1-1.95,1.95Z"/><path class="cls-1" d="M155.85,180.06a9,9,0,0,1-4.91,1.28,7.22,7.22,0,0,1-7.44-7.44,7.37,7.37,0,1,1,14.73.12,1.32,1.32,0,0,1-1.31,1.31h-9.18c.21,1.65,2,2.35,3.5,2.35a3.84,3.84,0,0,0,2.47-.67,2,2,0,0,1,2.69.21A1.86,1.86,0,0,1,155.85,180.06ZM154,172.68a2.77,2.77,0,0,0-3-2.59,3,3,0,0,0-3.17,2.59Z"/><path class="cls-1" d="M172.3,180.06a9,9,0,0,1-4.91,1.28A7.22,7.22,0,0,1,160,173.9a7.36,7.36,0,1,1,14.72.12,1.32,1.32,0,0,1-1.31,1.31h-9.18c.22,1.65,2,2.35,3.51,2.35a3.87,3.87,0,0,0,2.47-.67,2,2,0,0,1,2.68.21A1.85,1.85,0,0,1,172.3,180.06Zm-1.89-7.38a2.77,2.77,0,0,0-3-2.59,3,3,0,0,0-3.17,2.59Z"/><path class="cls-1" d="M18.76,136.33c0,9.4,9.59,17,21.41,17H131c11.83,0,21.42-7.61,21.42-17v-.22H18.76Z"/><path class="cls-1" d="M110.57,47.6c-1.95-14.36-7.27-28.77-9.82-38.67C99.47,4,96.46,0,93.42,0c-4.3,0-7.29,8.46-7.5,9.06q-3.33,9.33-6.67,18.67-2.1-8.53-4.19-17.06A2,2,0,0,0,71.93,9.4l-.86,1a104.6,104.6,0,0,0-7.32,31.35c-.15,2-.21,4-.25,5.88Zm-16.11-29a3.48,3.48,0,1,1-4.09,4.09A3.47,3.47,0,0,1,94.46,18.55Z"/><path class="cls-1" d="M164.66,62.19a25.87,25.87,0,0,0-18.32-7.59h-5.2v-4H30V87.52a60.48,60.48,0,0,0,20.73,45.64h69.69a60.67,60.67,0,0,0,18.09-28,25.91,25.91,0,0,0,26.16-43ZM154.83,89A12,12,0,0,1,141,91.26c.07-1.24.12-2.48.12-3.74v-19h5.2A12,12,0,0,1,154.83,89Z"/><path class="cls-1" d="M62.69,194.6a2.59,2.59,0,0,1-.88,2,3,3,0,0,1-2.11.81,4.31,4.31,0,0,1-1.72-.44,1.17,1.17,0,0,0-.4-.12c-.11,0-.18.12-.21.37s-.06.19-.17.19-.13-.05-.13-.16a.71.71,0,0,1,0-.16,11.93,11.93,0,0,0,.11-1.51q0-.14,0-.75a1.28,1.28,0,0,1,0-.21c0-.14.05-.21.16-.21s.15.11.19.33c.23,1.6,1,2.4,2.26,2.4a1.67,1.67,0,0,0,1.26-.46,1.77,1.77,0,0,0,.45-1.3,2,2,0,0,0-.44-1.28A4.53,4.53,0,0,0,59.54,193a5.39,5.39,0,0,1-1.76-1.22,2.19,2.19,0,0,1-.5-1.46A2.48,2.48,0,0,1,58,188.5a2.43,2.43,0,0,1,1.81-.72,3.76,3.76,0,0,1,1.26.31,1.24,1.24,0,0,0,.41.1.27.27,0,0,0,.2-.05.62.62,0,0,0,.08-.28.14.14,0,0,1,.15-.13c.09,0,.13.05.13.16a.71.71,0,0,1,0,.16,5.69,5.69,0,0,0,0,.77,5.52,5.52,0,0,0,.07,1v.21q0,.15-.12.15c-.1,0-.16-.1-.2-.31a2.43,2.43,0,0,0-.7-1.32,1.71,1.71,0,0,0-1.23-.52,1.39,1.39,0,0,0-1.06.42,1.69,1.69,0,0,0-.4,1.17,1.8,1.8,0,0,0,.58,1.38,7.49,7.49,0,0,0,1.39.83,5.82,5.82,0,0,1,1.81,1.27A2.28,2.28,0,0,1,62.69,194.6Z"/><path class="cls-1" d="M66.26,197.13c0,.08-.07.12-.22.12l-.33,0-.67,0H63.65a.28.28,0,0,1-.16.05c-.1,0-.14,0-.14-.1s.08-.14.26-.14a1.32,1.32,0,0,0,.56-.07,1.78,1.78,0,0,0,0-.56v-4a1.44,1.44,0,0,0,0-.4s-.07-.06-.17-.06h-.52c-.1,0-.14,0-.14-.09s.07-.09.22-.09a3.26,3.26,0,0,0,1.52-.42l.13-.08a1.72,1.72,0,0,1,.11.73v4.3a3.93,3.93,0,0,0,0,.63c0,.06.06.1.14.12a2.25,2.25,0,0,0,.59.05C66.2,197,66.26,197.06,66.26,197.13Zm-1-8.33a.53.53,0,0,1-.6.6.6.6,0,0,1-.43-.17.54.54,0,0,1-.18-.41c0-.42.2-.63.61-.63A.53.53,0,0,1,65.26,188.8Z"/><path class="cls-1" d="M72.85,197.14c0,.06-.06.1-.2.1H70.19c-.12,0-.17,0-.17-.09s0-.08.07-.08l.51,0c.17,0,.27,0,.3-.08a1.11,1.11,0,0,0,0-.43V194a7.59,7.59,0,0,0-.11-1.74.88.88,0,0,0-.91-.6,1.38,1.38,0,0,0-1.12.59.78.78,0,0,0-.13.48v4.16c0,.11.09.17.28.18h.41c.09,0,.13,0,.13.1s0,.09-.16.09H66.9c-.14,0-.2,0-.2-.08s.08-.09.24-.11h.33q.21,0,.24-.09l0-.2v-2.91c0-1,0-1.58,0-1.68s-.13-.16-.34-.16H66.8c-.17,0-.26,0-.26-.1s.09-.13.28-.13a3.61,3.61,0,0,0,.87-.15,1.57,1.57,0,0,0,.65-.31.34.34,0,0,1,.19-.1c.06,0,.09.08.09.25v.64a2.21,2.21,0,0,1,1.8-.89,1.49,1.49,0,0,1,1.39.71,3.25,3.25,0,0,1,.24,1.52v3.05a1.2,1.2,0,0,0,0,.47.62.62,0,0,0,.39.08h.24C72.81,197.05,72.85,197.08,72.85,197.14Z"/><path class="cls-1" d="M78.16,192.6a.53.53,0,0,1-.6.61c-.39,0-.59-.19-.59-.56a1.13,1.13,0,0,1,.13-.44.43.43,0,0,0,0-.19.5.5,0,0,0-.27-.44,1.22,1.22,0,0,0-.69-.18,1.4,1.4,0,0,0-1.24.7,3.59,3.59,0,0,0-.44,2,4.36,4.36,0,0,0,.45,2.19,1.42,1.42,0,0,0,1.28.77,1.55,1.55,0,0,0,1-.35,3,3,0,0,0,.52-.61.15.15,0,0,1,.12-.07c.09,0,.13,0,.13.11s-.15.33-.46.65a2.06,2.06,0,0,1-1.54.63,2.52,2.52,0,0,1-2-.84,3,3,0,0,1-.77-2.13,3.24,3.24,0,0,1,.82-2.28,2.63,2.63,0,0,1,2-.9,2.45,2.45,0,0,1,1.4.41A1.17,1.17,0,0,1,78.16,192.6Z"/><path class="cls-1" d="M83.71,195.75a1.2,1.2,0,0,1-.21.48,2.27,2.27,0,0,1-.42.55,2,2,0,0,1-1.54.59,2.64,2.64,0,0,1-2-.87,3,3,0,0,1-.81-2.15,3.35,3.35,0,0,1,.77-2.24,2.44,2.44,0,0,1,1.92-.89,2.33,2.33,0,0,1,1.59.55,2,2,0,0,1,.69,1.43,7.41,7.41,0,0,1-1.14.05h-.94l-1.6,0a4.92,4.92,0,0,0-.07.84,3.55,3.55,0,0,0,.51,2.07,1.68,1.68,0,0,0,1.46.73,1.38,1.38,0,0,0,.85-.24,2.89,2.89,0,0,0,.7-.92.14.14,0,0,1,.14-.11C83.68,195.66,83.71,195.69,83.71,195.75ZM82.55,193c0-1.07-.42-1.6-1.15-1.6s-1.18.53-1.35,1.6Z"/><path class="cls-1" d="M92.07,197.11c0,.08-.1.12-.29.12H88.51c-.21,0-.32,0-.32-.12s.06-.13.19-.13H89q.4,0,.45-.21a6.81,6.81,0,0,0,0-.83v-6.28a2.38,2.38,0,0,0,0-.51s-.08-.08-.19-.08l-.88.07h-.21c-.11,0-.16,0-.16-.09s0-.11.16-.12a3.64,3.64,0,0,0,1.26-.38,3.45,3.45,0,0,0,1-.74.4.4,0,0,1,.2-.12c.07,0,.1,0,.1.13v8.5a1.77,1.77,0,0,0,0,.56q0,.08.33.09h.73C92,197,92.07,197,92.07,197.11Z"/><path class="cls-1" d="M99.79,191.9a6.32,6.32,0,0,1-.81,3.18,4.32,4.32,0,0,1-2.12,2,4.91,4.91,0,0,1-1.93.4c-.23,0-.34,0-.34-.09s.06-.09.18-.11A3.63,3.63,0,0,0,97.88,195a7.27,7.27,0,0,0,.47-2,2.37,2.37,0,0,1-1.66.69A2.66,2.66,0,0,1,94,190.87a3.24,3.24,0,0,1,.79-2.19,2.41,2.41,0,0,1,1.89-.9,2.67,2.67,0,0,1,2.23,1.15A4.86,4.86,0,0,1,99.79,191.9Zm-1.4-.88a4.41,4.41,0,0,0-.57-2.41,1.19,1.19,0,0,0-1-.6c-.92,0-1.38,1-1.38,2.89,0,1.65.51,2.47,1.54,2.47a1.22,1.22,0,0,0,1.07-.62A3.26,3.26,0,0,0,98.39,191Z"/><path class="cls-1" d="M106.78,194.6a2.43,2.43,0,0,1-.9,1.9,3.69,3.69,0,0,1-2.53.87,2.48,2.48,0,0,1-1.84-.59,1.17,1.17,0,0,1-.38-.85.87.87,0,0,1,.26-.66,1,1,0,0,1,.71-.25.8.8,0,0,1,.57.2.65.65,0,0,1,.23.51c0,.32-.21.56-.63.74-.17.07-.25.14-.25.22s.11.22.35.31a1.87,1.87,0,0,0,.76.14,2.13,2.13,0,0,0,1.65-.69,2.65,2.65,0,0,0,.64-1.83c0-1.51-.68-2.26-2-2.26H103c-.11,0-.17,0-.17-.13s.11-.11.32-.14a2.37,2.37,0,0,0,1.45-.69,2.05,2.05,0,0,0,.5-1.42,2,2,0,0,0-.44-1.37,1.49,1.49,0,0,0-1.19-.51,2,2,0,0,0-1,.23.66.66,0,0,0-.4.55c0,.08.06.13.18.16.59.14.89.38.89.73s-.24.68-.71.68a1,1,0,0,1-.73-.26,1,1,0,0,1-.27-.71,1.46,1.46,0,0,1,.62-1.21,3.26,3.26,0,0,1,3.67.16,2.07,2.07,0,0,1,.67,1.53,1.88,1.88,0,0,1-1.14,1.78,4.87,4.87,0,0,1-1.3.33v.1a3.42,3.42,0,0,1,1.8.49A2.2,2.2,0,0,1,106.78,194.6Z"/><path class="cls-1" d="M114.23,195.74c0,.09,0,.13-.14.13s-.13-.05-.15-.15-.06-.38-.1-.84a.26.26,0,0,0-.11-.16,1.74,1.74,0,0,0-.71-.09h-.28v2.1a.31.31,0,0,0,.22.2,4,4,0,0,0,.77,0c.2,0,.31,0,.35.06a.17.17,0,0,1,0,.08c0,.06-.18.09-.53.09l-3,0h-.29c-.18,0-.27,0-.27-.13s.13-.12.39-.11a4.36,4.36,0,0,0,.83,0,.26.26,0,0,0,.2-.14,2.4,2.4,0,0,0,0-.51v-1.63h-1.84l-1.7,0c-.12,0-.18,0-.18-.1s.65-1,2-2.77l2.72-3.83a.24.24,0,0,1,.19-.12c.09,0,.13.08.13.25v6.28h.13a3.28,3.28,0,0,0,.71-.06c.17,0,.26-.12.26-.26v-.58q0-.48.15-.48c.13,0,.2.13.2.37v1.57c0,.33,0,.54,0,.62S114.23,195.69,114.23,195.74Zm-2.69-6c-.09.15-.28.42-.56.82S110,192,109.2,193l-1,1.29c.33,0,1,0,2.12,0h1.09v-.95c0-.45,0-1.05,0-1.81S111.54,190.09,111.54,189.77Z"/><ellipse class="cls-1" cx="46.73" cy="192.6" rx="6.34" ry="0.44"/><ellipse class="cls-1" cx="124.41" cy="192.6" rx="6.34" ry="0.44"/></g></g></svg>